<svg xmlns="http://www.w3.org/2000/svg" xmlns:xlink="http://www.w3.org/1999/xlink" width="1800" zoomAndPan="magnify" viewBox="0 0 1350 404.250001" height="539" preserveAspectRatio="xMidYMid meet" version="1.0"><defs><clipPath id="3765795f5e"><path d="M 447.84375 104.269531 L 461.214844 104.269531 L 461.214844 117.640625 L 447.84375 117.640625 Z M 447.84375 104.269531 " clip-rule="nonzero"/></clipPath><clipPath id="280e86c468"><path d="M 454.527344 104.269531 C 450.835938 104.269531 447.84375 107.261719 447.84375 110.953125 C 447.84375 114.644531 450.835938 117.640625 454.527344 117.640625 C 458.21875 117.640625 461.214844 114.644531 461.214844 110.953125 C 461.214844 107.261719 458.21875 104.269531 454.527344 104.269531 " clip-rule="nonzero"/></clipPath><clipPath id="d2ad57d4aa"><path d="M 730.203125 363.152344 L 748.652344 363.152344 L 748.652344 381.601562 L 730.203125 381.601562 Z M 730.203125 363.152344 " clip-rule="nonzero"/></clipPath><clipPath id="921abc8e38"><path d="M 739.429688 363.152344 C 734.332031 363.152344 730.203125 367.28125 730.203125 372.378906 C 730.203125 377.472656 734.332031 381.601562 739.429688 381.601562 C 744.523438 381.601562 748.652344 377.472656 748.652344 372.378906 C 748.652344 367.28125 744.523438 363.152344 739.429688 363.152344 " clip-rule="nonzero"/></clipPath><clipPath id="e70dbb21fb"><path d="M 822.351562 104.269531 L 831.65625 104.269531 L 831.65625 113.574219 L 822.351562 113.574219 Z M 822.351562 104.269531 " clip-rule="nonzero"/></clipPath><clipPath id="b3e5db68c1"><path d="M 827.003906 104.269531 C 824.433594 104.269531 822.351562 106.351562 822.351562 108.921875 C 822.351562 111.492188 824.433594 113.574219 827.003906 113.574219 C 829.574219 113.574219 831.65625 111.492188 831.65625 108.921875 C 831.65625 106.351562 829.574219 104.269531 827.003906 104.269531 " clip-rule="nonzero"/></clipPath><clipPath id="d75e983f98"><path d="M 579.847656 224.894531 L 587.183594 224.894531 L 587.183594 232.230469 L 579.847656 232.230469 Z M 579.847656 224.894531 " clip-rule="nonzero"/></clipPath><clipPath id="cc144ac3c9"><path d="M 583.515625 224.894531 C 581.492188 224.894531 579.847656 226.539062 579.847656 228.5625 C 579.847656 230.589844 581.492188 232.230469 583.515625 232.230469 C 585.542969 232.230469 587.183594 230.589844 587.183594 228.5625 C 587.183594 226.539062 585.542969 224.894531 583.515625 224.894531 " clip-rule="nonzero"/></clipPath><clipPath id="d567be5a12"><path d="M 789.570312 201.558594 L 798.875 201.558594 L 798.875 210.863281 L 789.570312 210.863281 Z M 789.570312 201.558594 " clip-rule="nonzero"/></clipPath><clipPath id="f5d646ca30"><path d="M 794.222656 201.558594 C 791.652344 201.558594 789.570312 203.640625 789.570312 206.210938 C 789.570312 208.78125 791.652344 210.863281 794.222656 210.863281 C 796.792969 210.863281 798.875 208.78125 798.875 206.210938 C 798.875 203.640625 796.792969 201.558594 794.222656 201.558594 " clip-rule="nonzero"/></clipPath><clipPath id="8ac447b1ec"><path d="M 423.535156 313.515625 L 432.84375 313.515625 L 432.84375 322.820312 L 423.535156 322.820312 Z M 423.535156 313.515625 " clip-rule="nonzero"/></clipPath><clipPath id="ea06c8a534"><path d="M 428.1875 313.515625 C 425.621094 313.515625 423.535156 315.597656 423.535156 318.167969 C 423.535156 320.738281 425.621094 322.820312 428.1875 322.820312 C 430.757812 322.820312 432.84375 320.738281 432.84375 318.167969 C 432.84375 315.597656 430.757812 313.515625 428.1875 313.515625 " clip-rule="nonzero"/></clipPath><clipPath id="0d84ca6a4e"><path d="M 919.476562 248.171875 L 926.464844 248.171875 L 926.464844 255.15625 L 919.476562 255.15625 Z M 919.476562 248.171875 " clip-rule="nonzero"/></clipPath><clipPath id="0d84a14fc1"><path d="M 922.96875 248.171875 C 921.039062 248.171875 919.476562 249.734375 919.476562 251.664062 C 919.476562 253.59375 921.039062 255.15625 922.96875 255.15625 C 924.898438 255.15625 926.464844 253.59375 926.464844 251.664062 C 926.464844 249.734375 924.898438 248.171875 922.96875 248.171875 " clip-rule="nonzero"/></clipPath><clipPath id="ca4320f8fa"><path d="M 629.347656 51.160156 L 636.332031 51.160156 L 636.332031 58.144531 L 629.347656 58.144531 Z M 629.347656 51.160156 " clip-rule="nonzero"/></clipPath><clipPath id="14d914ef3a"><path d="M 632.839844 51.160156 C 630.910156 51.160156 629.347656 52.722656 629.347656 54.652344 C 629.347656 56.582031 630.910156 58.144531 632.839844 58.144531 C 634.769531 58.144531 636.332031 56.582031 636.332031 54.652344 C 636.332031 52.722656 634.769531 51.160156 632.839844 51.160156 " clip-rule="nonzero"/></clipPath><clipPath id="bff5eae4da"><path d="M 957.953125 139.84375 L 967.257812 139.84375 L 967.257812 149.148438 L 957.953125 149.148438 Z M 957.953125 139.84375 " clip-rule="nonzero"/></clipPath><clipPath id="284141270d"><path d="M 962.605469 139.84375 C 960.035156 139.84375 957.953125 141.929688 957.953125 144.496094 C 957.953125 147.066406 960.035156 149.148438 962.605469 149.148438 C 965.175781 149.148438 967.257812 147.066406 967.257812 144.496094 C 967.257812 141.929688 965.175781 139.84375 962.605469 139.84375 " clip-rule="nonzero"/></clipPath><clipPath id="495f8c970a"><path d="M 336.164062 166.1875 L 343.5 166.1875 L 343.5 173.527344 L 336.164062 173.527344 Z M 336.164062 166.1875 " clip-rule="nonzero"/></clipPath><clipPath id="5cce334f6b"><path d="M 339.832031 166.1875 C 337.804688 166.1875 336.164062 167.832031 336.164062 169.859375 C 336.164062 171.882812 337.804688 173.527344 339.832031 173.527344 C 341.855469 173.527344 343.5 171.882812 343.5 169.859375 C 343.5 167.832031 341.855469 166.1875 339.832031 166.1875 " clip-rule="nonzero"/></clipPath></defs><g clip-path="url(#3765795f5e)"><g clip-path="url(#280e86c468)"><path fill="#ffde59" d="M 447.84375 104.269531 L 461.214844 104.269531 L 461.214844 117.640625 L 447.84375 117.640625 Z M 447.84375 104.269531 " fill-opacity="1" fill-rule="nonzero"/></g></g><g clip-path="url(#d2ad57d4aa)"><g clip-path="url(#921abc8e38)"><path fill="#41645d" d="M 730.203125 363.152344 L 748.65625 363.152344 L 748.65625 381.601562 L 730.203125 381.601562 Z M 730.203125 363.152344 " fill-opacity="1" fill-rule="nonzero"/></g></g><g clip-path="url(#e70dbb21fb)"><g clip-path="url(#b3e5db68c1)"><path fill="#9f9c99" d="M 822.351562 104.269531 L 831.65625 104.269531 L 831.65625 113.574219 L 822.351562 113.574219 Z M 822.351562 104.269531 " fill-opacity="1" fill-rule="nonzero"/></g></g><g clip-path="url(#d75e983f98)"><g clip-path="url(#cc144ac3c9)"><path fill="#00bf63" d="M 579.847656 224.894531 L 587.183594 224.894531 L 587.183594 232.230469 L 579.847656 232.230469 Z M 579.847656 224.894531 " fill-opacity="1" fill-rule="nonzero"/></g></g><g clip-path="url(#d567be5a12)"><g clip-path="url(#f5d646ca30)"><path fill="#41645d" d="M 789.570312 201.558594 L 798.875 201.558594 L 798.875 210.863281 L 789.570312 210.863281 Z M 789.570312 201.558594 " fill-opacity="1" fill-rule="nonzero"/></g></g><g clip-path="url(#8ac447b1ec)"><g clip-path="url(#ea06c8a534)"><path fill="#41645d" d="M 423.535156 313.515625 L 432.84375 313.515625 L 432.84375 322.820312 L 423.535156 322.820312 Z M 423.535156 313.515625 " fill-opacity="1" fill-rule="nonzero"/></g></g><g clip-path="url(#0d84ca6a4e)"><g clip-path="url(#0d84a14fc1)"><path fill="#ffde59" d="M 919.476562 248.171875 L 926.464844 248.171875 L 926.464844 255.15625 L 919.476562 255.15625 Z M 919.476562 248.171875 " fill-opacity="1" fill-rule="nonzero"/></g></g><g clip-path="url(#ca4320f8fa)"><g clip-path="url(#14d914ef3a)"><path fill="#41645d" d="M 629.347656 51.160156 L 636.332031 51.160156 L 636.332031 58.144531 L 629.347656 58.144531 Z M 629.347656 51.160156 " fill-opacity="1" fill-rule="nonzero"/></g></g><g clip-path="url(#bff5eae4da)"><g clip-path="url(#284141270d)"><path fill="#41645d" d="M 957.953125 139.84375 L 967.257812 139.84375 L 967.257812 149.148438 L 957.953125 149.148438 Z M 957.953125 139.84375 " fill-opacity="1" fill-rule="nonzero"/></g></g><g clip-path="url(#495f8c970a)"><g clip-path="url(#5cce334f6b)"><path fill="#00bf63" d="M 336.164062 166.1875 L 343.5 166.1875 L 343.5 173.527344 L 336.164062 173.527344 Z M 336.164062 166.1875 " fill-opacity="1" fill-rule="nonzero"/></g></g></svg>